<?xml version="1.0" encoding="utf-8"?><svg fill="none" height="100%" width="100%" viewBox="0 0 500 500" xmlns:xlink="http://www.w3.org/1999/xlink" xmlns="http://www.w3.org/2000/svg"><defs /><g id="left"><g transform="translate(134.105,250.023)"><g transform="scale(1,0.3)"><animateTransform repeatCount="indefinite" type="scale" attributeName="transform" dur="1s" begin="0s" calcMode="spline" values="1 0.3; 1 1; 1 1.8; 1 1; 1 0.3; 1 0.3" keyTimes="0; 0.164917; 0.329783; 0.4947; 0.65957; 1" keySplines="0 0 1 1; 0 0 1 1; 0 0 1 1; 0 0 1 1; 0 0 1 1" fill="freeze" /><g transform="translate(-33,-108)"><g id="Group 1" transform="matrix(1,0,0,1,32.553,107.925)"><path fill="#246177" fill-opacity="1" d="M32.303,107.675C32.303,107.675,-32.303,107.675,-32.303,107.675C-32.303,107.675,-32.303,-107.675,-32.303,-107.675C-32.303,-107.675,32.303,-107.675,32.303,-107.675C32.303,-107.675,32.303,107.675,32.303,107.675Z" /></g></g></g></g></g><g id="left 2"><g transform="translate(252.049,250.023)"><g transform="scale(1,0.3)"><animateTransform repeatCount="indefinite" type="scale" attributeName="transform" dur="1s" begin="0s" calcMode="spline" values="1 0.3; 1 0.3; 1 1; 1 1.8; 1 1; 1 0.3; 1 0.3" keyTimes="0; 0.170217; 0.335083; 0.5; 0.664917; 0.829785; 1" keySplines="0 0 1 1; 0 0 1 1; 0 0 1 1; 0 0 1 1; 0 0 1 1; 0 0 1 1" fill="freeze" /><g transform="translate(-33,-108)"><g id="Group 1" transform="matrix(1,0,0,1,32.553,107.925)"><path fill="#246177" fill-opacity="1" d="M32.303,107.675C32.303,107.675,-32.303,107.675,-32.303,107.675C-32.303,107.675,-32.303,-107.675,-32.303,-107.675C-32.303,-107.675,32.303,-107.675,32.303,-107.675C32.303,-107.675,32.303,107.675,32.303,107.675Z" /></g></g></g></g></g><g id="left 3"><g transform="translate(369.993,250.023)"><g transform="scale(1,0.3)"><animateTransform repeatCount="indefinite" type="scale" attributeName="transform" dur="1s" begin="0s" calcMode="spline" values="1 0.3; 1 0.3; 1 1; 1 1.8; 1 1; 1 0.3" keyTimes="0; 0.340433; 0.5053; 0.670216; 0.835083; 1" keySplines="0 0 1 1; 0 0 1 1; 0 0 1 1; 0 0 1 1; 0 0 1 1" fill="freeze" /><g transform="translate(-33,-108)"><g id="Group 1" transform="matrix(1,0,0,1,32.553,107.925)"><path fill="#246177" fill-opacity="1" d="M32.303,107.675C32.303,107.675,-32.303,107.675,-32.303,107.675C-32.303,107.675,-32.303,-107.675,-32.303,-107.675C-32.303,-107.675,32.303,-107.675,32.303,-107.675C32.303,-107.675,32.303,107.675,32.303,107.675Z" /></g></g></g></g></g></svg>